<?xml version="1.0" encoding="utf-8"?>
<!-- Generator: Adobe Illustrator 14.0.0, SVG Export Plug-In  -->
<!DOCTYPE svg PUBLIC "-//W3C//DTD SVG 1.1//EN" "http://www.w3.org/Graphics/SVG/1.1/DTD/svg11.dtd" [
	<!ENTITY ns_flows "http://ns.adobe.com/Flows/1.0/">
]>
<svg version="1.1"
	 xmlns="http://www.w3.org/2000/svg" xmlns:xlink="http://www.w3.org/1999/xlink" xmlns:a="http://ns.adobe.com/AdobeSVGViewerExtensions/3.0/"
	 x="0px" y="0px" width="1133px" height="567px" viewBox="10 8.504 1133 567" enable-background="new 10 8.504 1133 567"
	 xml:space="preserve">
<defs>
</defs>
<linearGradient id="SVGID_1_" gradientUnits="userSpaceOnUse" x1="576" y1="569.9688" x2="576" y2="8.5022">
	<stop  offset="0.2377" style="stop-color:#00AEEF"/>
	<stop  offset="1" style="stop-color:#2E3192"/>
</linearGradient>
<rect fill-rule="evenodd" clip-rule="evenodd" fill="url(#SVGID_1_)" width="1152" height="583.938"/>
<path fill-rule="evenodd" clip-rule="evenodd" fill="#00AEEF" d="M525.938,125.761c-0.474,2.115,0.053,3.415,0.053,4.875
	c0,1.601-0.258,2.18-0.569,4.274c-0.322,2.105-0.257,4.855-0.129,5.929c0.129,1.096,1.912,6.133,2.804,7.84
	c0.891,1.739,3.061,4.424,3.512,5.692c0.236,0.709,0.816,3.759,1.848,5.23c1.02,1.471,2.749,2.298,2.749,2.298l0.429,1.278
	l-8.656,7.454c0,0-2.115,4.274-3.07,5.488c-0.957,1.213-3.566,3.577-4.65,4.908c-1.086,1.353-2.225,3.201-3.577,4.468
	c-1.332,1.278-2.298,3.319-3.447,5.176c-1.149,1.848-2.739,9.054-2.739,9.054s-1.6,1.912-2.685,2.427
	c-1.074,0.505-1.524,0.44-1.782,0.569s0.129,1.02,0.129,1.02s-0.322,0.441-1.15,1.407c-0.826,0.946-3.189,4.651-4.135,6.187
	c-0.967,1.525-2.749,4.597-3.512,5.413c-0.762,0.838-2.996,5.424-3.565,6.25c-0.569,0.838-2.309,2.814-2.933,3.512
	c-0.644,0.698-0.772,1.471-0.772,1.471s-3.309,4.081-4.157,5.359c-0.816,1.278-0.892,2.288-1.149,3.061
	c-0.236,0.763-1.46,3.501-1.977,4.715c-0.493,1.213-0.375,3.641,0.388,5.423c0.772,1.783,2.621,5.037,3.909,5.542
	c0.559,0.709,5.596,1.536,8.022,1.741c2.428,0.171,3.771-1.225,4.521-2.245c0.773-1.02,0.839-2.997,0.839-2.997
	s0.826,0.516,1.267,1.149c0.451,0.634,0.838,1.149,1.922,3.512c1.086,2.341,1.837,3.318,2.096,4.146
	c-0.13,0.698-0.506,1.396-0.881,2.362c-0.387,0.945-2.17,6.949-3.318,10.526c-1.15,3.565-2.363,9.118-3.256,13.392
	c-0.891,4.274-0.697,4.071-1.137,5.735c-0.452,1.665-1.612,5.875-2.621,9.763c-1.021,3.898-1.783,8.354-2.041,8.678
	c-0.257,0.322-2.041,5.606-1.589,6.058c0.429,0.45,7.517,2.233,7.517,2.233s0.064,2.48,0,4.532c-0.064,2.04-0.258,5.155,0.635,8.355
	c0.891,4.275,3.383,9.623,3.189,10.14c0.193,0.838-0.956,9.88-0.956,12.941c0,3.06-1.472,14.616-1.665,19.523
	c-0.182,4.91-0.815,9.377-0.515,11.868c0.333,2.48,2.244,13.062,2.374,14.027c0.129,0.956-0.259,1.655-0.388,2.997
	c0,1.535,0.258,2.168,0.634,3.575c0.387,1.407,3.394,23.725,3.953,25.883c0.58,2.182,0.901,9.324,1.277,11.17
	c0.398,1.849-0.312,6.896-0.697,8.871c-0.387,1.977-2.17,5.231-2.739,6.316c-0.579,1.095-2.234,8.613-2.61,10.652
	c-0.387,2.042,0.183,4.212-0.322,5.864c-0.515,1.655-1.148,5.554-0.773,7.712c0.388,2.18,2.299,3.265,2.879,3.976
	c0.57,0.696,0,3.629-0.193,4.263c-0.44,0.473-1.01,0.269-1.654,0.311c-1.686,0.098-2.813-0.386-4.35,0.451
	c-0.956,0.646-1.836,2.428-1.836,2.428s-4.146,0.45-5.113,0.579c-0.955,0.119-2.094,0.634-2.792,1.075
	c-0.708,0.451-1.16,1.91-1.16,1.91s-0.193,0.26-0.644,1.343c-0.43,1.085-0.494,2.74-0.494,2.74s-0.387,0.257-0.581,0.515
	c-0.193,0.258,0.064,0.956,0.064,0.956s-0.322,0.764-0.44,1.214c-0.128,0.451,0.118,0.772,0.183,1.021
	c0.064,0.258-0.816,3.188-0.816,3.188s-2.309,1.72-2.879,2.041c-0.579,0.323-1.761,0.613-2.297,0.893
	c-2.234,1.363-1.085,1.664-1.268,1.922c-0.193,0.257-5.241,2.427-7.217,3.179c-1.976,0.772-4.596,1.664-4.962,1.857
	c-0.386,0.184-0.837,1.591-0.837,1.591s-0.699,0.064-0.892,0.438c-0.193,0.389,0.075,1.097,0.075,1.097s-0.397,0.892-0.719,1.718
	c-0.312,0.827-0.14,2.234-0.14,2.234s-0.043,0.193-0.495,0.645c-0.215,0.216,0.129,1.01,0.129,1.01s-0.515,1.149-0.709,1.718
	c-0.182,0.582,0.322,1.912,0.322,1.912l-0.257,0.322l-0.698,2.75c0,0-0.183,1.085,2.566,2.341c0.431,0.407,0.817,0.72,1.515,0.795
	c0.312,0.118,0.258-0.838,2.427,0.622c0.376,0.453,0.504-0.622,1.912,0.389c0.763,0.579,1.085-0.635,1.966,0.321
	c1.096,0.193,1.225-1.021,2.18,0.129c0.827-0.064,0.956-0.839,1.729,0c0.944,0,0.44-0.903,0.558-1.601
	c0.129-0.655,1.16-0.827,1.482-0.376c0.172,0.516,0,1.396,0.118,1.719c0.58,0.193,3.953,0.064,4.521-0.063
	c0.581-0.129-0.128-1.592,0.387-1.72c0.505-0.129,1.16-0.322,1.278,0.192c0.118,0.506-0.118,1.204,0.376,1.333
	c0.515,0.13,3.715-0.129,4.038-0.323c0.806-0.182,0.184-1.46,0.495-1.589c0.311-0.128,1.213-0.193,1.16,0.129
	c-0.075,0.322-0.14,0.893,0.118,1.085c0.258,0.193,3.383-0.129,4.35-0.064c0.236-0.258,0-1.213,0.236-1.719
	c0.397-0.322,0.773-0.387,0.967-0.129c0.183,0.247,0.129,1.59,0.451,1.72c0.321,0.128,3.243-0.313,3.629-0.507
	c0.388-0.192,0-1.406,0.441-1.718c0.439-0.332,0.439-0.259,1.02-0.064c0.259,0.495,0.13,1.439,0.517,1.396
	c0.386-0.064,2.674-0.516,3.243-0.763c0.58-0.258-0.183-1.407,0.193-1.858c0.387-0.45,0.451-0.515,1.031-0.312
	c0.117,0.247,0.192,1.14,0.311,1.601c0.441,0.055,2.31-1.03,3.254-1.225c0.516-0.184-0.129-1.719,0.131-2.105
	c0.246-0.386,1.137-0.579,1.396-0.321c0.257,0.257,0.257,1.149,0.515,1.406c0.258,0.248,3.061-0.569,3.587-0.763
	c0.495-0.193-0.064-1.095,0.107-1.407c0.205-0.311,0.774-0.503,0.945-0.182c0.215,0.311,0.15,1.524,0.538,1.849
	c0.375,0.301,2.545-0.131,2.985-0.26c0.45-0.128,0.064-1.095,0.257-1.407c0.193-0.311,0.957-0.375,1.215-0.182
	c0.246,0.182,0.129,0.945,0.321,1.267c0.183,0.322,2.095-0.064,2.417-0.129s-0.129-1.202,0.193-1.459
	c0.322-0.258,0.891-0.45,1.213-0.258c0.313,0.193,0.313,1.021,0.57,1.138c0.258,0.129,2.233-0.506,2.62-0.623
	c0.376-0.129-0.257-0.901,0.064-1.096c0.312-0.193,0.827-0.375,0.945-0.129c0.129,0.259,0.129,0.968,0.45,1.096
	c0.322,0.129,1.977-0.386,2.234-0.578c0.258-0.194-0.193-1.021,0.129-1.215c0.312-0.184,0.891-0.569,0.945-0.248
	c0.58,0.119,0.064,0.699,0.526,0.699c0.494,0.311,1.847-1.343,1.966-2.115c0.064-0.248-0.635-3.89-0.688-4.264
	c-0.086-0.389,0.13-1.796-0.086-2.739c-0.171-0.967-0.815-1.096-0.88-1.59c-0.064-0.517,0-1.289,0.064-2.053
	c0.064-0.76-0.258-4.843,0.064-5.101c0.708-0.129,1.59-0.193,1.911-0.193s0.321-1.406,0.321-1.461
	c0.453-0.322,1.086-0.387,1.332-0.139c0.259,0.258,0.313,1.288,0.646,1.471c0.321,0.193,2.104,0,2.427-0.063
	c0.322-0.056-0.075-0.902,0.322-1.214c0.376-0.313,1.332-0.506,1.59-0.193c0.258,0.333,0.193,1.149,0.516,1.149
	c0.321,0,1.696-0.107,2.545-0.119c0.236-0.268-0.064-0.837,0.322-1.214c0.375-0.387,1.085-0.129,1.257,0.129
	c0.204,0.248,0.075,0.946,0.396,0.946c0.313,0,2.417-0.129,2.868-0.248c0.129-0.45-0.258-1.149,0.064-1.406
	c0.322-0.258,1.031-0.388,1.074-0.064c0.387,0.386,0.129,1.16,0.451,1.16s4.092-0.581,5.498-2.942
	c0.237-0.925-0.708-3.641-0.708-3.641s0.515-3.384-0.763-4.844c-0.184-0.646-0.44-1.72-0.44-1.72s0.064,0.064,0.44-0.772
	c0.387-0.817,0.182-4.715,0.44-5.928c0.258-1.204,1.847-8.411,1.653-9.689c-0.107-0.772-1.771-3.328-2.17-4.273
	c-0.364-0.968-0.235-1.848-0.235-1.848s0.128-0.322,0.634-0.708c0.891-0.387,2.545-2.75,2.609-3.372
	c0.064-1.407-0.387-2.492-0.709-3.331c-0.311-0.825-1.139-5.218-1.202-6.175c-0.064-0.956-0.634-12.125-0.839-15.057
	c-0.182-2.933-0.117-8.668-0.365-10.719c-0.257-2.051-1.481-15.369-1.481-15.369s3.577-14.993,3.952-16.969
	c0.387-1.977,0.773-6.638,0.773-6.638s0.569-1.911,0.827-3.566c0.257-1.665,0.376-4.596,0.569-7.088
	c0.193-2.482,1.601-10.204,2.17-12.76c0.579-2.544,2.738-17.924,2.867-19.633c0.129-1.729,1.289-16.528,1.471-17.679
	c0.193-1.148-0.063-3.629-0.063-3.629l1.073-0.076c0,0,0.076-2.673,0.27-3.888c0.182-1.213,0.182-4.327,0.826-5.294
	c0.645-0.945,0.902-3.888,1.406-6.314c0.506-2.417,1.73-13.532,1.849-14.735c0.118-1.214,0.954-5.864,1.278-5.864
	c0.321,0,0.708,1.718,1.072,3.372c0.389,1.664-0.129,3.384,0.076,4.211c0.183,0.837,1.857,1.406,2.491,2.361
	c0.634,0.957,0,2.041,0.441,3.395c0.429,1.331,1.267,2.029,1.718,2.868c0.365,0.665,0.752,3.018,0.902,3.576
	c0.248,0.944,1.396,1.976,1.524,2.921c0.194,1.407-0.515,3.265-0.192,4.531c0.322,1.268,2.105,2.997,1.783,3.888
	c-0.313,0.893-2.363,2.493-2.814,4.728c-0.43,2.233,1.719,15.433,1.977,16.196c0.257,0.761,1.225,5.992,1.03,7.774
	c-0.192,1.783-0.892,2.942-1.589,5.563c-0.709,2.621-0.517,4.147,0.117,6.058c0.645,1.912,1.084,5.993,0.58,7.39
	c-0.516,1.417-3.447,7.722-3.898,9.387c-0.451,1.654-1.579,9.054-1.9,11.031c-0.313,1.986-1.031,12.963-1.096,13.65
	c-0.055,0.707-0.827,4.466-1.074,7.345c-0.269,2.856-0.333,5.736-0.516,6.295c-0.183,0.58-0.762,3.393-1.149,5.11
	c-0.386,1.719-1.407,11.815-1.02,12.89c0.376,1.085,0.892,0.966,2.352,2.233c1.472,1.267,4.339,2.609,4.339,2.609
	s0.709,1.601,1.096,3.384s4.907,20.341,5.155,21.371c0.258,1.021,0.837,3.127,0.966,3.632c0.129,0.516,0.57,6.25,0.57,7.088
	c0,0.815,0,2.985-0.441,4.328c-0.129,0.333-1.535,0.064-2.491,1.535c-0.956,1.462-0.451,3.696-0.451,3.696s-0.129,0.193-0.956,1.846
	c-0.826,1.676-0.762,11.813-0.762,12.889c0.193,1.343,0.762,2.363,0.762,2.363s0.193,0.258-0.139,0.762
	c-0.302,0.505-0.623,3.963-0.752,4.726s0.58,1.536,1.793,2.052c1.214,0.493,10.58,2.663,12.362,3.178
	c1.804,0.516,12.63,5.039,13.146,4.779c0.881,0.195,1.332-0.375,2.738-0.181c0.635-0.064-0.568,0.762,1.396,1.137
	c0.698,0.322,2.502-0.45,3.189-0.45c0.709,0,1.602,1.096,2.813,0.772c0.817,0.193,1.268-0.633,2.428-0.579
	c1.01,0.063,0.515,0.837,2.556,0.772c0.816,0,1.14-0.064,1.525-0.772c0.559-0.246,2.234-0.699,3.372-0.246
	c0.204,0.053,1.332,0.009,2.997-0.87c1.021-0.064,0.998-0.142,2.17-0.656c2.459-0.892,3.533-0.913,6.368-2.115
	c0.323-0.248,1.16-1.075,0.902-2.287c-0.064-0.698,0.192-2.997-0.129-3.448c-0.129-0.515-0.773-1.848-2.299-3.565
	c-1.524-1.74-6.186-4.092-7.389-4.854c-1.214-0.772-8.807-6.379-9.494-6.832c-0.708-0.45-0.966-1.975-1.159-2.416
	c-0.194-0.44-0.517-2.105-0.581-2.427c-0.321-0.697-0.772-0.764-0.944-1.085c-0.193-0.322-0.666-2.19-1.096-2.867
	c-0.752-1.214-2.041-1.535-2.041-1.535s-1.461-3.255-2.041-3.642c-0.128-0.377-1.588-0.313-1.975-0.313
	c-1.074,0.699-1.268,1.977-1.655,2.17c-0.386,0.193-0.321-1.588-1.02-1.857c-0.698-0.248-1.149,0-1.149,0s-3.76-9.558-4.264-12.427
	c-0.516-2.878-1.214-12.05-1.149-13.854c0.064-1.781-0.064-7.066,0.258-7.646c0.956-0.322,2.546-0.322,6.305-0.582
	c3.759-0.245,3.952-1.395,4.457-2.103c0.515-0.699,3.835-15.305,4.081-16.777c0.258-1.461,1.407-5.348,2.041-7.389
	c0.654-2.04,4.671-20.105,5.048-21.888c0.386-1.783,3.254-22.962,3.822-25.637c0.71-5.102,1.653-11.094,2.299-12.813
	c0.515,0.752,0.451,1.849,0.708,3.372c0.248,1.536,2.535,17.873,2.793,19.525c0.259,1.655,1.214,5.221,1.783,6.821
	c0.58,1.6,1.611,4.404,1.805,4.843c0.182,0.45,0.301,0.645,0,1.397c-0.333,0.772-0.516,7.979-0.58,8.88
	c-0.064,0.892,0.58,8.228,0.58,9.055c0,0.838,0.117,1.978,0.493,2.803c0.064,0.698,0,1.795,0,2.041c0,0.257,0.129,3.577,0.322,4.221
	c0.194,0.622,1.031,6.949,1.268,8.797c0.269,1.847,0.58,3.51,1.805,4.209c1.89,0.892,3.05,0.699,3.823,1.085
	c0.494,0.828,4.07,21.245,4.338,22.07c0.248,0.827,1.913,7.014,2.3,9.119c0.376,2.105,0.44,7.399,0.246,7.841
	c-0.568,0.192-0.826,0.064-1.6,0.192c-0.751,0.129-0.634,0.838-0.817,1.472c-0.203,0.634-0.771,1.459-0.955,1.977
	c-0.203,0.516,0,3.06-0.064,3.897c-0.074,0.817-1.987,9.688-2.051,11.213c-0.064,1.535,0.258,2.298,0.258,2.298
	s0.258,0.387-0.064,0.773c-0.322,0.376-0.902,4.78-0.902,5.219c0.193,1.098,1.342,2.439,2.062,2.17
	c0.946,0.709,5.026,1.549,9.044,1.913c4.026,0.387,7.636,0.589,11.728,0.708c0.58,0,2.233-0.257,2.492,0.645
	c0.644,0.313,1.084,0.193,1.524,0.248c0.462,0.064,2.631-0.635,3.898,1.277c0.763,0.258,1.139,0.387,1.332,0.258
	c0.27,0.193,0.721-0.946,2.373,0.708c0.688,0.259,1.344,0.313,1.654,0.377c0.322,0.053,0.57-1.085,2.041,0.193
	c0.516,0.182,2.362,0.633,3.051,0.439c0.139-0.387,1.61-1.074,2.749,0.193c0.515,0.13,1.782,0.065,2.298-0.129
	c0.516-0.193-0.193-0.762,1.149-0.762c0.634,0.117,1.268-0.129,1.782,0c0.506,0.117,0.463,0.826,1.214,0.697
	c0.763-0.129,1.396,0,1.978-0.182c0.311-0.076,0.192-0.569,0.891-0.699c0.697-0.129,1.965-0.257,2.545-0.129
	c0.579,0.129,1.869-0.192,2.363-0.321c0.516-0.129,1.277-0.645,1.804-0.645c0.493,0,4.575-1.848,5.026-1.912
	c0.827-0.966,1.149-3.05,1.214-3.887c0.054-0.386-0.451-1.085-0.451-1.085s-0.064-0.258-0.204-1.214
	c-0.107-0.956-1.761-2.492-3.05-3.319c-1.268-0.827-5.155-2.17-7.218-2.738c-2.029-0.579-7.066-3.2-8.022-3.384
	c-0.634-0.312,0.129-0.956-1.536-1.6c-0.945-0.322-1.524-0.129-2.041-0.506c-0.493-0.374,0.065-0.761-1.138-1.213
	c-1.214-0.891-2.041-0.323-1.977-0.826c-0.129-0.505,0.064-1.471-0.579-2.053c-0.258-0.493-1.332-0.751-1.912-0.88
	s-0.634-0.516-0.634-0.516s0.568-0.055,0.817-0.45c0.257-0.377,0.654,1.095,1.094,0.837c0.118-0.515-0.516-1.03-0.439-1.33
	c0.064-0.324,0.956-0.324,0.494-1.613c0-0.44-0.055-1.213-0.688-3.242c-0.838-2.686-3.631-4.233-6.648-3.771
	c-1.857,0.42-3.684,1.912-3.684,1.912s0.118-0.763-0.838-0.892c-0.58-0.129-1.203-0.193-1.461-0.193
	c-0.504-0.128-2.232-6.948-2.104-8.033c-0.128-0.892,0.183-9.313,0.312-10.462c0.129-1.138,0.064-7.967,0.064-9.321
	c0-1.331,0.697-12.673,0.697-13.318c0.193-0.45,4.092-1.147,5.242-2.879c0.311-0.438-0.709-14.09-0.709-14.799
	c0-0.698-0.248-1.523-0.248-1.523s0.064-3.255,0.248-6.253c0.193-3.007,0.709-8.161,0.944-11.038
	c0.269-2.869,1.536-19.269,1.482-20.73c-0.065-1.46-0.644-17.215-0.892-19.32c-0.258-2.105-1.719-18.119-2.041-20.16
	c-0.332-2.039-0.633-9.89-0.837-13.908c-0.194-4.016-2.224-22.134-2.932-26.344c-0.698-4.211-2.61-15.123-3.438-17.85
	c-0.837-2.75-4.285-12.319-5.435-14.488c-1.138-2.169-4.006-7.969-3.93-8.86c1.449-1.021,2.352-1.343,1.89-2.492
	c-0.172-0.698-1.396-1.031-1.718-1.536c-0.313-0.505-0.817-2.739-0.817-2.739s1.085-0.708,2.6-2.362
	c0.838-0.763,8.742-15.305,9.634-16.776c0.891-1.46,0.697-4.597,1.277-4.532c0.58,0.064,1.923,1.095,3.126-0.183
	c2.169-1.601,1.653-6.885,1.343-8.045c-0.322-1.138-0.828-1.525-1.139-1.976c-0.322-0.44,0.043-1.525,0.504-3.308
	c0.441-1.804-1.793-11.352-2.867-14.424c-1.096-3.061-8.549-14.284-11.224-18.237c-2.685-3.962-8.236-11.674-9.439-13.328
	c-1.214-1.665-2.75-4.662-4.028-7.411c-1.268-2.739-8.109-14.349-9.826-17.034c-1.719-2.663-7.261-6.369-8.679-7.013
	c-1.396-0.633-6.229-1.847-8.216-2.352c-1.976-0.516-2.675-1.16-3.887-1.471c-4.221-1.407-3.643-0.57-4.598-0.763
	c-0.387-0.085-1.848-1.912-2.094-2.685c-0.452-0.386-0.322-8.924-0.387-10.138c0.193-2.298-0.58-2.878-0.194-3.383
	c0.323-0.569,1.72-2.803,2.17-3.694c0.247-0.494,0.967-2.674,1.203-3.254c0.257-0.58,0.837,1.396,3.329,0.193
	c1.01-0.258-1.922-0.193-2.115-1.149c-0.506-0.634-0.377-1.085,0-1.407c0.396-0.322,1.084,0.387,1.793,0.322
	c-0.709-0.451-0.709-0.258-1.031-0.827c-0.301-0.58,0-2.674,0.193-3.061s0.635,1.021,0.635,1.525
	c0.257-1.342-0.247-1.847-0.247-2.234s0.386-4.919,0.321-5.488c-0.074-0.569-0.129-2.417-0.074-2.996
	c0.074-0.569,1.342,0.258,2.867-1.718c0.58-0.516,0.322-0.258,1.289-0.773c-0.646-0.247-0.064,0.129-1.354,0.258
	c-1.268,0.128,0.516-0.569,1.095-1.461c-2.427,1.139-1.718,0.516-2.62,0.827c-0.752-0.516,0.14,0.193,2.105-2.169
	c-2.535,1.536-2.406,0.763-3.244,1.021c-0.139-0.194-0.139-0.322-0.064-0.698c0.064-0.387,1.977-0.957,2.6-1.407
	c0.645-0.452,1.482-0.903,2.126-1.719c-2.556,0.881-2.62,1.719-4.8,0.698c-1.021-0.892,0.579,0.569,3.071-1.729
	c-1.858,0.516-1.472,0.257-2.933,0.075c-1.471-0.193,2.729-1.214,3.115-2.041c-1.461-0.182-1.525,0.441-2.471-0.58
	c-0.967-1.02,2.288-1.138,2.922-1.084c0.645,0.064-0.387-0.128-0.387-0.645c0-0.494,1.718-0.816,2.309-1.138
	c0.568-0.322-0.377-0.193-0.956-0.516c-0.579-0.312,1.46-1.267,1.782-1.912c0.301-0.644-0.708,0.762-1.846,0.837
	c-1.16,0.054,1.02-1.481,0.966-4.79c-2.502,4.146-0.149-1.654-3.136-4.983c-0.451-0.88,0-4.897-1.225-6.562
	c-1.213-1.654-1.268-3.448-2.48-4.521c-1.215-1.096-1.279-1.858-2.17-2.169c-0.891-0.323-1.084-1.719-2.61-2.299
	c-1.524-0.579-2.233-1.922-2.996-1.922s-2.933-1.149-4.017-1.407c-1.084-0.247-2.867-0.688-3.566-0.623
	c-0.719,0.054-2.749-0.516-4.23-0.452c-1.45,0.054-4.457,0.054-4.962-0.064c-0.505-0.129-1.987-0.451-4.651,1.139
	c-0.901,0.773-1.6,0.451-2.04,0.891c-0.45,0.451-2.932-2.48-8.549-0.44c-1.074,0.322-6.187,1.547-9.634,8.163
	c-1.021,1.225-1.343,2.491-1.407,3.394c-0.064,0.881-4.575,4.081-2.868,9.559c0.322,1.653,1.021,5.799,0.064,6.573
	c-0.826,2.427-2.738,6.959,0.387,8.034c0.764,1.213,2.546,2.62,2.096,3.641c-0.441,1.02-1.525,1.148-2.547,1.267
	c-1.02,0.139-1.965,1.148-2.48,1.406c-0.516,0.258-0.645,1.278-1.783,1.601c-1.148,0.311-1.396-1.021-3.65,0.129
	c-0.945,0.44-2.041-0.827-3.373-0.773c-1.332,0.064-3.243-0.441-4.715,0.128c-1.471,0.581-1.6,0.322-3.061,0.892
	c-1.461,0.58-1.998,0.258-2.943,0.956c-0.945,0.709-2.362,0.258-2.738,1.342c-0.375,1.074-1.396,0.258-1.729,1.718
	c-0.624,1.214-2.096,0.193-3.115,2.105c-0.967,1.6-2.868,1.976-2.868,4.156c-0.118,0.762-3.822,2.416-3.318,7.013
	c0.322,2.041-2.61,4.082-1.268,6.82c-0.075,1.213-0.204,3.125,0.118,4.146c0.258,0.805,0.742,1.686,1.429,2.578
	C525.959,124.729,525.723,125.589,525.938,125.761z M612.652,484.542c-0.238-0.389-1.268-0.582-0.817,0.245
	C612.211,484.852,612.414,484.906,612.652,484.542z M612.211,485.872c0.258,0.193,0.569,0.322,0.441,1.073
	c0.257,0.463,0.719,0.205,1.029,0.389c-0.053-0.506-0.311-1.591-0.579-1.784C612.845,485.357,611.964,485.679,612.211,485.872z
	 M613.371,488.364c0.258-0.064,1.074,0,1.578,1.073c0.322,0.322-0.365,0.579-0.762,0.515
	C613.811,489.889,613.425,488.805,613.371,488.364z M683.385,482.746c0.204-0.579-1.139-4.025-3.63-5.424
	c-0.71-0.128-2.105,0.323-1.524,0.881c-0.195,0.387,2.92,3.577,3.383,4.039C682.053,482.682,682.568,483.188,683.385,482.746z
	 M575.479,195.27c-0.118-0.322-1.836-1.224-1.664,0.183c0.063,0.569,2.362,8.495,2.298,9.236c0.645,1.289,0.709,1.353-0.117,5.059
	c-0.183,0.623-1.535,7.905-1.6,8.785c-0.065,0.902-0.13,12.394-1.525,20.546c-0.193,0.698-0.893,6.25-0.773,6.701
	c-0.248,1.461,0.709,5.617-0.377,7.658c-0.505,1.589-2.299,4.585-2.609,5.101c-0.322,0.505,1.782,3.577,1.9,4.017
	c0.646,0.956,0.709-0.376,0.893-0.698c0.579-1.407,0.45-5.746,2.942-8.484c0.633-0.581,3.565-3.007,3.437-5.628
	c0.258-1.073,3.008-5.542,3.115-6.497c0.139-0.956,1.095-6.627,0.966-7.593c-0.515-1.783-5.413-4.017-3.05-7.905
	c0.322-0.645,3.502-5.166,3.179-6.702c-0.322-1.525,0.773-4.908-1.461-8.925c-0.386-1.02-2.942-5.166-1.331-9.892
	C579.443,197.364,575.621,195.571,575.479,195.27z"/>
</svg>
